<?xml version="1.0" encoding="UTF-8" standalone="no"?>
<!-- Generator: Adobe Illustrator 25.3.1, SVG Export Plug-In . SVG Version: 6.00 Build 0)  -->

<svg
   version="1.1"
   id="Layer_1"
   x="0px"
   y="0px"
   viewBox="0 0 679.00086 454.90074"
   xml:space="preserve"
   sodipodi:docname="zebral_logo_mono2.svg"
   inkscape:version="1.2.1 (9c6d41e410, 2022-07-14)"
   width="179.65208mm"
   height="120.359mm"
   xmlns:inkscape="http://www.inkscape.org/namespaces/inkscape"
   xmlns:sodipodi="http://sodipodi.sourceforge.net/DTD/sodipodi-0.dtd"
   xmlns="http://www.w3.org/2000/svg"
   xmlns:svg="http://www.w3.org/2000/svg"><defs
   id="defs38" /><sodipodi:namedview
   id="namedview36"
   pagecolor="#ffffff"
   bordercolor="#000000"
   borderopacity="0.25"
   inkscape:showpageshadow="2"
   inkscape:pageopacity="0.0"
   inkscape:pagecheckerboard="0"
   inkscape:deskcolor="#d1d1d1"
   showgrid="false"
   inkscape:zoom="1.7820324"
   inkscape:cx="339.5"
   inkscape:cy="227.2686"
   inkscape:window-width="2560"
   inkscape:window-height="1009"
   inkscape:window-x="-8"
   inkscape:window-y="-8"
   inkscape:window-maximized="1"
   inkscape:current-layer="Layer_1"
   inkscape:document-units="mm" />
<path
   d="M 416.1,354.4 393,342.8 c -6.4,-3.3 -12.8,-6.6 -19,-10.1 -1.5,-0.8 -2.8,-2.1 -3.5,-3.7 -26.9,-69.2 -53.7,-138.4 -80.5,-207.5 -0.1,-0.7 -0.2,-1.3 -0.3,-2 l 8.1,-3.1 c 20.7,-7.6 28,-31.3 14.9,-49.1 C 302.3,53.1 291.4,39.1 281.1,24.8 277,19.1 273.6,13.1 270.8,6.7 c -2.3,-5 0,-7.6 5.3,-6.5 4.7,1 9.2,2.6 13.5,4.9 41.2,22.5 82.3,45.1 123.4,67.8 1.9,1.4 3.1,3.5 3.3,5.8 0.1,90.5 0.1,181 0.1,271.5 0,1.1 -0.2,2.2 -0.3,4.2 z"
   id="path21" />
<path
   d="M 296.1,357 258.8,395.7 0,266.9 c 1.9,-8.6 7.4,-15.9 15.2,-20 24.6,-13.7 49.1,-27.3 73.9,-40.5 14.6,-7.8 29.5,-14.6 44.3,-22 2.7,-1.4 4.5,-1.4 6.8,1.1 51.4,56.6 102.8,113.1 154.3,169.5 0.6,0.6 1.1,1.3 1.6,2 z"
   id="path23" />
<path
   d="m 355.5,330.1 c -17.4,2.3 -32.7,8.8 -47.1,18.7 L 151,176.2 c 41.1,-19 82.2,-36.2 124.7,-51.9 z"
   id="path25" />
<path
   d="m 430.4,84.2 c 26,15.7 50.2,31.9 69.5,54.2 10.9,12.6 21.3,25.6 31.9,38.4 1.9,1.9 2.4,4.8 1.3,7.2 -24,61.6 -47.9,123.2 -71.7,184.7 -0.5,1.4 -1.2,2.7 -1.9,4 -9.1,-3.5 -18.1,-7 -27,-10.6 -1,-0.7 -1.7,-1.8 -2,-3 -0.2,-1.3 -0.2,-2.6 -0.1,-3.9 z"
   id="path27" />
<path
   d="m 544.5,194.1 c 7.1,11.9 13.2,22.7 19.9,33.2 3.4,5 7.4,9.7 11.8,13.9 10.6,10.5 21.6,20.7 32.7,31.3 l -17.8,19.6 c -28.2,31 -56.5,62 -84.6,93.1 -3.3,3.6 -5.8,4 -10.1,2 -7.3,-3.5 -15,-6.3 -23,-9.6 23.5,-60.8 47,-121.5 71.1,-183.5 z"
   id="path29" />
<path
   d="m 665.8,357.9 -18.6,9.4 c -32.2,16 -64.3,31.9 -96.4,48 -3,1.5 -4.8,1.3 -7.5,-0.7 -8.7,-6.5 -17.9,-12.5 -27.2,-18.9 l 101,-110.8 c 8.7,6.7 41.4,55.8 48.7,73 z"
   id="path31" />
<path
   d="m 672.1,370.9 c 8.1,14.2 9.9,28 0.7,42.2 -5.2,8.1 -9.6,16.7 -14.5,25 -7.4,12.7 -19.1,18 -33.6,16.5 -8.9,-0.9 -17.9,-1.3 -26.9,-1 -10,0.1 -18.4,-2.8 -25.2,-10 -4.8,-5 -9.3,-10.4 -14.3,-16.1 z"
   id="path33" />
</svg>
